<?xml version="1.0" standalone="no"?>
<!DOCTYPE svg PUBLIC "-//W3C//DTD SVG 20010904//EN"
 "http://www.w3.org/TR/2001/REC-SVG-20010904/DTD/svg10.dtd">
<svg version="1.0" xmlns="http://www.w3.org/2000/svg"
 width="700.000000pt" height="700.000000pt" viewBox="0 0 700.000000 700.000000"
 preserveAspectRatio="xMidYMid meet">
<metadata>
Created by potrace 1.11, written by Peter Selinger 2001-2013
</metadata>
<g transform="translate(0.000000,700.000000) scale(0.100000,-0.100000)"
fill="#000000" stroke="none">
<path d="M1175 6985 c-387 -54 -693 -224 -899 -500 -130 -173 -225 -401 -252
-600 -3 -27 -9 -59 -12 -70 -4 -11 -8 -1009 -9 -2218 l-4 -2197 491 0 490 0 3
2152 c1 1184 6 2169 11 2188 21 90 74 169 144 215 37 23 134 56 182 61 14 1
1297 2 2853 3 l2827 1 0 490 0 490 -2867 -1 c-2235 -1 -2888 -4 -2958 -14z"/>
<path d="M2379 5596 c-2 -2 -30 -7 -62 -10 -32 -4 -64 -9 -70 -11 -7 -2 -28
-6 -48 -9 -46 -7 -200 -61 -264 -94 -225 -113 -400 -326 -474 -575 -60 -200
-60 -193 -60 -1397 1 -893 3 -1113 15 -1195 35 -249 130 -451 283 -605 62 -62
169 -143 208 -157 10 -3 25 -11 33 -17 34 -26 184 -77 305 -103 75 -16 239
-18 2418 -21 l2337 -3 0 421 0 420 -2267 1 c-1248 0 -2281 3 -2298 5 -97 15
-148 54 -176 135 -17 51 -18 104 -16 1134 l2 1080 25 50 c32 64 92 103 170
109 30 3 1069 5 2308 6 l2252 0 0 420 0 420 -2309 0 c-1269 0 -2310 -2 -2312
-4z"/>
<path d="M0 490 l0 -490 490 0 490 0 0 490 0 490 -490 0 -490 0 0 -490z"/>
<path d="M1400 490 l0 -490 2800 0 2800 0 0 490 0 490 -2800 0 -2800 0 0 -490z"/>
</g>
</svg>
