<?xml version="1.0" standalone="no"?>
<!DOCTYPE svg PUBLIC "-//W3C//DTD SVG 20010904//EN"
 "http://www.w3.org/TR/2001/REC-SVG-20010904/DTD/svg10.dtd">
<svg version="1.0" xmlns="http://www.w3.org/2000/svg"
 width="500.000000pt" height="500.000000pt" viewBox="0 0 500.000000 500.000000"
 preserveAspectRatio="xMidYMid meet">
<metadata>
Created by potrace 1.11, written by Peter Selinger 2001-2013
</metadata>
<g transform="translate(0.000000,500.000000) scale(0.100000,-0.100000)"
fill="#000000" stroke="none">
<path d="M1699 4966 c7 -8 6 -17 -1 -26 -8 -12 -9 -12 -4 3 7 21 -12 23 -20 2
-6 -15 -25 -21 -23 -7 3 20 -2 32 -16 32 -8 0 -15 -5 -15 -11 0 -5 4 -8 8 -5
5 3 9 -1 9 -9 0 -11 -4 -12 -13 -4 -8 7 -13 6 -16 -3 -3 -8 -7 -6 -11 6 -4 10
-3 15 3 11 6 -3 10 -1 10 4 0 6 -7 11 -15 11 -8 0 -15 -3 -15 -8 0 -4 -9 -13
-21 -20 -12 -8 -18 -9 -14 -3 8 14 -7 14 -23 1 -9 -7 -9 -7 -2 2 16 19 12 23
-25 25 -21 1 -33 -2 -30 -8 4 -5 10 -7 15 -4 4 3 10 -1 13 -8 3 -7 -3 -13 -13
-13 -10 0 -16 4 -13 9 3 5 -4 6 -16 2 -14 -4 -21 -2 -21 7 0 8 -12 14 -30 14
-16 1 -30 -3 -30 -10 0 -6 -5 -4 -10 4 -8 13 -10 12 -10 -2 0 -10 -4 -18 -10
-18 -5 0 -7 6 -4 13 3 8 -2 14 -11 14 -9 0 -14 -5 -12 -12 3 -6 -5 -11 -19
-11 -13 0 -24 4 -24 9 0 5 7 7 15 3 8 -3 15 -2 15 2 0 5 -38 8 -85 8 -52 0
-85 -4 -85 -11 0 -5 -5 -3 -10 5 -8 13 -10 12 -10 -2 0 -10 -4 -18 -10 -18 -5
0 -7 6 -4 13 3 10 -7 13 -41 13 -32 0 -45 -4 -45 -14 0 -11 3 -12 13 -4 13 11
42 11 53 -1 4 -3 -6 -4 -21 -1 -14 2 -24 1 -21 -4 7 -11 -72 -8 -82 3 -4 5 2
5 13 1 15 -5 17 -4 8 5 -21 21 -36 -1 -16 -23 16 -18 14 -18 -22 3 -30 18 -37
19 -26 6 12 -16 12 -17 -5 -10 -17 6 -18 5 -4 -13 13 -17 13 -18 0 -8 -20 14
-39 12 -49 -5 -7 -11 -10 -9 -16 8 -7 22 -16 26 -29 14 -6 -7 -28 -13 -53 -15
-9 -1 -9 -7 -1 -22 11 -21 10 -21 -10 -3 -21 19 -40 8 -26 -15 4 -6 3 -8 -3
-5 -14 9 -35 -17 -25 -29 4 -5 -2 -2 -13 7 -28 22 -48 18 -56 -11 -5 -19 -7
-20 -8 -6 -1 19 -1 19 -22 0 -12 -10 -23 -17 -24 -14 -2 3 -7 1 -12 -4 -5 -5
-3 -6 4 -2 19 10 16 -2 -6 -30 -16 -20 -20 -21 -25 -8 -4 10 -2 13 6 8 7 -5 8
-3 3 6 -5 9 -4 11 3 6 8 -4 10 -2 6 7 -4 12 -10 10 -30 -10 -28 -28 -32 -42
-6 -22 15 13 16 12 3 -3 -7 -10 -22 -18 -33 -18 -16 0 -17 -3 -8 -20 8 -16 8
-18 -4 -14 -8 3 -17 1 -21 -5 -9 -15 -28 -14 -20 2 4 6 -2 2 -13 -10 -11 -12
-23 -19 -27 -15 -5 4 -5 1 -1 -6 5 -8 -1 -16 -16 -21 -16 -7 -18 -10 -6 -10 9
-1 25 10 36 24 l19 25 0 -26 c0 -15 -3 -21 -7 -15 -5 9 -10 8 -20 -4 -7 -8
-21 -15 -31 -15 -11 0 -19 -5 -19 -11 0 -5 -5 -7 -12 -3 -7 4 -8 3 -4 -5 5 -8
12 -9 20 -2 8 6 17 6 26 0 12 -8 11 -9 -5 -7 -12 2 -19 -2 -17 -10 1 -8 -2
-11 -8 -7 -5 3 -16 3 -23 -2 -6 -4 -16 -8 -22 -8 -5 -1 -9 -6 -8 -13 2 -7 -2
-12 -9 -12 -6 0 -8 -3 -5 -7 4 -3 18 4 31 16 22 21 24 21 37 4 13 -16 12 -17
-3 -5 -10 8 -19 9 -22 3 -3 -5 -3 -11 1 -14 5 -2 2 -2 -5 0 -8 2 -16 -6 -19
-18 -4 -16 -8 -17 -14 -7 -7 10 -12 9 -26 -6 -16 -18 -16 -19 0 -7 13 10 17
10 17 1 0 -6 -9 -14 -19 -17 -11 -3 -22 -11 -25 -19 -3 -8 -2 -13 2 -11 4 1 8
-3 9 -8 1 -6 -4 -9 -11 -7 -7 1 -19 -5 -26 -13 -11 -13 -10 -18 6 -30 18 -14
18 -14 -1 -9 -15 3 -25 -4 -37 -26 -10 -17 -13 -28 -8 -25 15 9 12 -5 -5 -22
-12 -11 -13 -19 -5 -28 8 -10 8 -15 -1 -21 -8 -4 -9 -3 -5 4 4 7 2 12 -3 12
-10 0 -15 -22 -14 -57 1 -7 -3 -13 -8 -13 -5 0 -9 -13 -9 -29 0 -17 -5 -33
-10 -36 -6 -3 -8 -17 -6 -30 3 -14 0 -27 -5 -31 -6 -3 -8 -13 -5 -21 3 -8 3
-20 -1 -26 -10 -17 -11 -47 -1 -41 10 6 11 -10 1 -19 -3 -4 -7 -39 -7 -77 -1
-58 2 -69 14 -65 9 3 7 -1 -4 -10 -14 -11 -16 -15 -5 -15 9 0 10 -3 4 -8 -13
-9 -14 -62 -1 -81 7 -10 6 -12 -4 -6 -8 5 -11 3 -8 -6 3 -8 10 -14 15 -14 6 0
15 -3 19 -7 3 -4 -3 -6 -15 -3 -22 4 -29 -10 -8 -18 9 -4 9 -6 0 -6 -17 -1
-17 -38 0 -44 9 -4 9 -6 0 -6 -7 -1 -13 -9 -13 -18 0 -15 2 -16 10 -3 7 12 9
10 7 -7 0 -12 -4 -20 -8 -17 -3 2 -7 -7 -7 -21 0 -16 5 -22 12 -18 6 4 5 -1
-3 -11 -13 -15 -13 -19 0 -27 8 -5 9 -9 3 -9 -6 0 -11 -11 -11 -25 0 -13 3
-22 8 -19 5 3 9 0 9 -5 0 -6 -4 -11 -8 -11 -13 0 -11 -34 2 -42 8 -5 7 -8 -1
-8 -7 0 -13 -8 -13 -17 0 -15 2 -16 10 -3 6 9 10 10 10 3 0 -6 -4 -15 -10 -18
-5 -3 -10 -11 -10 -16 0 -6 6 -7 13 -3 7 5 7 1 -2 -10 -13 -15 -13 -19 0 -27
10 -6 10 -9 2 -9 -7 0 -13 -4 -13 -9 0 -6 10 -8 21 -6 12 3 18 1 15 -3 -4 -4
-13 -7 -19 -7 -5 0 -12 -6 -15 -14 -3 -9 0 -11 8 -6 10 6 11 4 4 -6 -14 -21
-14 -180 0 -172 6 4 5 -1 -3 -11 -13 -15 -13 -19 0 -27 8 -5 9 -9 3 -9 -6 0
-12 -11 -12 -25 0 -13 4 -22 9 -19 5 3 9 0 9 -5 0 -6 -4 -11 -8 -11 -13 0 -11
-34 2 -42 8 -5 7 -8 -1 -8 -7 0 -13 -8 -13 -17 0 -15 2 -16 10 -3 6 9 10 10
10 3 0 -6 -5 -15 -10 -18 -6 -3 -10 -11 -10 -16 0 -6 6 -7 13 -3 7 5 7 1 -2
-10 -13 -15 -13 -19 0 -27 10 -6 10 -9 2 -9 -7 0 -13 -4 -13 -9 0 -6 10 -8 21
-6 12 3 18 1 15 -3 -4 -4 -13 -7 -19 -7 -7 0 -12 -7 -12 -15 0 -8 5 -15 12
-15 6 0 15 -3 19 -7 3 -4 -3 -6 -15 -3 -22 4 -29 -10 -8 -18 10 -4 10 -6 0 -6
-7 -1 -13 -10 -13 -20 0 -11 6 -22 13 -24 10 -4 10 -6 0 -6 -7 -1 -13 -9 -13
-18 0 -15 2 -16 10 -3 7 12 9 10 7 -7 0 -12 -4 -20 -8 -17 -3 2 -6 -7 -6 -21
0 -16 4 -22 11 -18 6 4 5 -1 -3 -11 -13 -15 -13 -19 0 -27 8 -5 9 -9 3 -9 -6
0 -11 -11 -11 -25 0 -13 3 -22 8 -19 5 3 9 0 9 -5 0 -6 -4 -11 -8 -11 -13 0
-11 -34 2 -42 8 -5 7 -8 -1 -8 -7 0 -13 -8 -13 -17 0 -15 2 -16 10 -3 6 9 10
10 10 3 0 -6 -4 -15 -10 -18 -5 -3 -10 -11 -10 -16 0 -6 6 -7 12 -3 8 5 8 1
-1 -10 -13 -15 -13 -19 0 -27 10 -6 10 -9 2 -9 -7 0 -13 -4 -13 -9 0 -6 10 -8
21 -6 12 3 18 1 15 -3 -4 -4 -13 -7 -19 -7 -5 0 -12 -6 -15 -14 -3 -9 0 -11 8
-6 10 6 11 4 4 -6 -14 -21 -14 -180 0 -172 6 4 5 -1 -3 -11 -13 -15 -13 -19 0
-27 8 -5 9 -9 3 -9 -6 0 -12 -11 -12 -25 0 -13 4 -22 9 -19 5 3 9 0 9 -5 0 -6
-4 -11 -8 -11 -13 0 -11 -34 2 -42 8 -5 7 -8 -1 -8 -7 0 -13 -8 -13 -17 0 -15
2 -16 10 -3 6 9 10 10 10 3 0 -6 -5 -15 -10 -18 -6 -3 -10 -11 -10 -16 0 -6 6
-7 12 -3 8 5 8 1 -1 -10 -13 -15 -13 -19 0 -27 10 -6 10 -9 2 -9 -7 0 -13 -4
-13 -9 0 -6 10 -8 21 -6 12 3 18 1 15 -3 -4 -4 -13 -7 -19 -7 -7 0 -12 -7 -12
-15 0 -8 5 -15 12 -15 6 0 15 -3 19 -7 3 -4 -3 -6 -15 -3 -22 4 -29 -10 -8
-18 9 -4 9 -6 0 -6 -17 -1 -17 -38 0 -44 9 -4 9 -6 0 -6 -7 -1 -13 -9 -13 -18
0 -15 2 -16 10 -3 7 12 9 10 7 -7 0 -12 -4 -20 -8 -17 -3 2 -6 -7 -6 -21 -1
-14 4 -22 10 -18 6 4 7 1 1 -8 -13 -20 -13 -99 0 -99 6 0 4 -5 -4 -10 -11 -7
-11 -10 -2 -10 8 0 10 -5 5 -12 -9 -16 -12 -59 -3 -53 4 2 7 -2 7 -10 0 -8 -3
-12 -7 -10 -4 2 -6 -14 -6 -35 1 -22 5 -40 10 -40 5 0 2 -8 -5 -17 -12 -15
-12 -16 5 -9 19 7 19 6 1 -14 -14 -15 -15 -20 -4 -20 11 0 11 -2 -1 -10 -11
-7 -11 -10 -2 -10 8 0 10 -5 5 -12 -14 -24 -12 -40 5 -34 13 5 12 2 -2 -9 -14
-11 -16 -15 -5 -15 8 0 10 -3 4 -8 -15 -11 -17 -32 -2 -32 9 0 8 -3 -2 -9 -11
-7 -9 -13 8 -30 11 -11 18 -21 13 -22 -4 0 2 -4 13 -9 11 -4 151 -8 312 -9
l292 -1 25 25 c17 17 26 38 27 58 0 18 1 676 2 1464 2 1130 5 1435 15 1444 6
7 12 21 12 31 0 10 24 43 53 73 29 31 51 57 49 60 -3 3 1 5 9 5 8 1 37 11 64
25 l50 24 1730 1 c1779 1 1988 3 2025 17 8 3 24 8 35 10 10 2 28 10 40 18 77
55 79 63 79 310 l0 213 -28 37 c-38 50 -84 77 -108 64 -10 -5 -18 -6 -19 -2 0
4 -4 -1 -9 -12 -7 -16 -9 -16 -9 -4 -1 10 -9 16 -18 15 -12 -1 -17 5 -15 17 2
9 -2 17 -8 17 -5 0 -10 -7 -10 -15 0 -8 -4 -15 -10 -15 -5 0 -7 6 -4 13 3 8
-2 14 -11 14 -9 0 -14 -5 -12 -12 3 -6 -5 -11 -19 -11 -13 0 -24 4 -24 9 0 5
7 7 15 3 8 -3 15 -2 15 2 0 5 -38 8 -85 8 -52 0 -85 -4 -85 -11 0 -5 -5 -3
-10 5 -8 13 -10 12 -10 -2 0 -10 -4 -18 -10 -18 -5 0 -7 6 -4 13 3 8 -2 14
-11 14 -9 0 -14 -5 -12 -12 3 -6 -5 -11 -19 -11 -13 0 -24 4 -24 9 0 5 7 7 15
3 8 -3 15 -2 15 3 0 5 -24 8 -54 7 -30 0 -52 -3 -50 -5 2 -2 -6 -9 -19 -16
-23 -12 -71 0 -61 16 3 5 0 9 -5 9 -6 0 -11 -3 -11 -8 0 -4 -9 -13 -21 -20
-12 -8 -18 -9 -14 -2 4 7 -2 9 -18 6 -15 -3 -30 3 -40 15 -19 22 -49 15 -40
-8 4 -11 2 -14 -5 -9 -7 4 -12 2 -12 -3 0 -6 -4 -11 -8 -11 -5 0 -9 7 -9 15 0
8 4 12 9 9 4 -3 8 0 8 6 0 8 -18 10 -55 7 -30 -3 -53 -1 -50 3 2 3 -3 7 -11 7
-9 0 -11 -4 -5 -10 11 -11 3 -37 -11 -37 -7 0 -7 5 0 13 8 9 6 16 -8 24 -14
10 -21 9 -30 -2 -6 -8 -9 -18 -6 -23 3 -5 -1 -9 -9 -9 -10 0 -11 6 -5 23 7 18
6 22 -5 17 -8 -3 -12 -10 -9 -15 4 -6 1 -8 -7 -6 -8 3 -13 10 -12 15 1 5 -4
10 -12 10 -11 0 -12 -5 -3 -20 7 -14 7 -18 -1 -12 -7 4 -18 1 -26 -5 -11 -9
-15 -9 -15 -1 0 6 5 11 10 11 6 0 10 4 10 10 0 5 -7 6 -17 3 -11 -4 -14 -3 -9
5 4 7 2 12 -4 12 -6 0 -10 -6 -9 -12 3 -24 -1 -38 -10 -38 -5 0 -8 8 -6 18 4
25 -4 33 -24 23 -9 -5 -23 -6 -31 -1 -14 9 -40 3 -40 -10 0 -5 11 -7 25 -6 13
2 22 -1 19 -5 -8 -13 -39 -5 -58 13 -20 21 -47 13 -39 -10 4 -9 3 -14 -2 -10
-4 4 -14 0 -22 -10 -13 -15 -13 -14 -3 7 14 28 -3 45 -30 31 -9 -5 -23 -4 -34
2 -13 7 -21 6 -29 -2 -9 -10 -9 -11 0 -6 7 4 22 2 33 -4 16 -9 25 -8 36 1 8 7
14 7 14 1 0 -15 -29 -23 -48 -13 -9 4 -23 6 -29 4 -7 -3 -20 2 -28 11 -16 15
-45 12 -45 -6 0 -5 4 -7 8 -4 4 2 14 0 22 -5 12 -7 10 -8 -6 -6 -12 1 -29 11
-39 20 -21 22 -41 17 -37 -9 2 -10 1 -16 -3 -12 -4 4 -16 -3 -27 -15 l-19 -22
17 28 c14 24 15 30 4 37 -8 5 -18 6 -22 4 -14 -9 -78 -13 -73 -5 2 4 -3 8 -11
8 -9 0 -11 -4 -5 -10 11 -11 3 -37 -11 -37 -7 0 -7 5 0 13 8 9 6 16 -8 24 -14
10 -21 9 -30 -2 -6 -8 -9 -18 -6 -23 3 -5 -1 -9 -9 -9 -10 0 -11 6 -5 23 7 18
6 22 -5 17 -8 -3 -12 -10 -9 -15 4 -6 1 -8 -7 -6 -8 3 -13 10 -12 15 1 5 -4
10 -12 10 -7 0 -11 -5 -9 -11 2 -6 -5 -17 -16 -24 -12 -7 -20 -8 -20 -2 0 5 5
10 10 10 6 0 10 4 10 10 0 5 -7 6 -17 3 -11 -4 -14 -3 -9 5 4 7 2 12 -4 12 -6
0 -10 -6 -9 -12 3 -24 -1 -38 -10 -38 -6 0 -8 9 -6 20 5 24 -12 37 -28 21 -9
-9 -7 -10 7 -5 13 5 17 4 12 -4 -10 -16 -24 -15 -42 3 -15 15 -44 10 -44 -7 0
-5 4 -7 8 -4 4 2 14 0 22 -5 12 -7 10 -8 -6 -6 -12 1 -29 11 -39 20 -21 22
-41 17 -37 -9 2 -10 1 -16 -3 -12 -4 4 -16 -3 -27 -15 l-19 -22 17 28 c14 24
15 30 4 37 -8 5 -18 6 -22 4 -14 -9 -78 -13 -73 -5 2 4 -3 8 -11 8 -9 0 -11
-4 -5 -10 11 -11 3 -37 -11 -37 -7 0 -7 5 0 13 8 9 6 16 -8 24 -14 10 -21 9
-30 -2 -6 -8 -9 -18 -6 -23 3 -5 -1 -9 -9 -9 -10 0 -11 6 -5 23 7 18 6 22 -5
17 -8 -3 -12 -9 -9 -14 5 -8 -9 -7 -61 4 -5 2 -16 6 -22 10 -16 10 -17 -5 -1
-21 8 -8 8 -12 1 -12 -6 0 -14 7 -17 16 -4 10 -13 13 -27 9 -13 -4 -19 -3 -16
2 4 5 -1 10 -9 10 -9 0 -11 -4 -5 -10 11 -11 3 -37 -11 -37 -7 0 -7 5 0 13 8
9 6 16 -8 24 -14 10 -21 9 -30 -2 -6 -8 -9 -18 -6 -23 3 -5 -1 -9 -9 -9 -10 0
-11 6 -5 23 7 18 6 22 -5 17 -8 -3 -12 -9 -9 -14 5 -8 -9 -7 -61 4 -5 2 -16 6
-22 10 -16 10 -17 -5 -1 -21 7 -7 9 -12 4 -12 -13 0 -35 27 -28 35 4 4 -5 0
-19 -9 -23 -15 -27 -15 -32 -2 -8 19 -35 11 -60 -18 l-18 -21 11 23 c9 18 8
22 -5 22 -9 0 -14 -4 -10 -9 3 -6 -4 -9 -15 -8 -22 1 -27 13 -7 20 6 3 -4 3
-23 1 -85 -11 -100 -12 -95 -5 2 4 -2 8 -10 8 -10 0 -12 -4 -5 -12 6 -8 5 -18
-6 -31 -15 -18 -15 -18 -5 2 7 15 6 23 -8 31 -14 9 -18 8 -18 -3 0 -7 5 -10
10 -7 6 3 7 1 3 -6 -4 -6 -12 -9 -17 -6 -5 4 -9 0 -9 -7 0 -9 -3 -9 -10 2 -5
8 -10 20 -10 25 0 6 5 3 10 -5 5 -8 10 -10 10 -4 0 6 -3 13 -6 17 -9 9 -35 -4
-28 -14 3 -5 1 -9 -5 -9 -5 0 -11 5 -13 12 -2 6 -14 12 -26 13 -21 2 -22 1 -6
-24 l17 -26 -27 24 c-14 14 -29 21 -33 17 -4 -4 -1 -11 7 -16 8 -6 10 -10 4
-10 -17 0 -35 25 -27 36 4 5 1 3 -7 -3 -16 -15 -34 -17 -26 -5 3 5 -1 9 -9 9
-10 0 -12 -4 -5 -12 5 -6 5 -16 -2 -25 -8 -13 -9 -13 -5 1 6 18 -29 44 -38 29
-4 -6 -12 -7 -18 -3 -21 13 -39 13 -28 -1z m25 -26 c-6 -6 -10 -3 -10 10 0 13
4 16 10 10 7 -7 7 -13 0 -20z m40 21 c3 -5 -1 -14 -8 -20 -12 -10 -14 -9 -11
6 2 10 4 19 4 21 2 5 10 2 15 -7z m376 -16 c14 -18 13 -19 -1 -7 -9 7 -23 10
-32 6 -8 -3 -18 -1 -22 5 -3 6 0 9 8 5 8 -3 18 0 22 6 4 6 8 10 9 8 1 -2 8
-12 16 -23z m117 18 c-4 -3 -1 -13 6 -22 10 -14 10 -14 -4 -4 -12 10 -18 10
-27 1 -7 -7 -12 -9 -12 -6 0 8 29 38 37 38 4 0 3 -3 0 -7z m227 -14 c-3 -5
-10 -7 -15 -3 -5 3 -7 10 -3 15 3 5 10 7 15 3 5 -3 7 -10 3 -15z m240 0 c-3
-5 -10 -7 -15 -3 -5 3 -7 10 -3 15 3 5 10 7 15 3 5 -3 7 -10 3 -15z m126 12
c0 -15 -32 -23 -44 -11 -8 8 -6 9 5 5 10 -4 20 -2 24 4 8 13 15 14 15 2z m67
-9 c9 -15 8 -19 -3 -19 -8 0 -12 3 -9 5 3 3 0 11 -6 19 -6 7 -7 13 -3 13 5 0
14 -8 21 -18z m287 -3 c-3 -5 -10 -7 -15 -3 -5 3 -7 10 -3 15 3 5 10 7 15 3 5
-3 7 -10 3 -15z m126 12 c0 -15 -32 -23 -44 -11 -8 8 -6 9 5 5 10 -4 20 -2 24
4 8 13 15 14 15 2z m67 -9 c9 -15 8 -19 -3 -19 -8 0 -12 3 -9 5 3 3 0 11 -6
19 -6 7 -7 13 -3 13 5 0 14 -8 21 -18z m241 -3 c9 -12 9 -16 -1 -16 -7 0 -14
9 -14 20 -1 11 -1 18 0 16 2 -2 8 -11 15 -20z m107 11 c-3 -5 -12 -10 -18 -10
-7 0 -6 4 3 10 19 12 23 12 15 0z m179 -11 c-3 -5 -10 -7 -15 -3 -5 3 -7 10
-3 15 3 5 10 7 15 3 5 -3 7 -10 3 -15z m190 -9 c-6 -6 -10 -3 -10 10 0 13 4
16 10 10 7 -7 7 -13 0 -20z m-2919 9 c3 -3 -6 -5 -19 -5 -14 1 -28 4 -31 7 -3
3 6 5 19 5 14 -1 28 -4 31 -7z m40 1 c-3 -5 -1 -10 6 -10 7 0 10 -2 7 -5 -3
-3 -13 -2 -22 1 -14 5 -15 9 -4 15 17 11 20 11 13 -1z m177 -1 c2 -2 1 -3 -1
-2 -2 2 -10 -2 -18 -9 -7 -6 -16 -8 -20 -4 -3 3 -1 6 6 6 7 0 10 4 7 9 -4 5 1
8 9 7 8 -1 16 -4 17 -7z m410 -11 c-7 -7 -12 -8 -12 -2 0 14 12 26 19 19 2 -3
-1 -11 -7 -17z m240 0 c-7 -7 -12 -8 -12 -2 0 14 12 26 19 19 2 -3 -1 -11 -7
-17z m240 0 c-7 -7 -12 -8 -12 -2 0 14 12 26 19 19 2 -3 -1 -11 -7 -17z m240
0 c-7 -7 -12 -8 -12 -2 0 14 12 26 19 19 2 -3 -1 -11 -7 -17z m240 0 c-7 -7
-12 -8 -12 -2 0 6 3 14 7 17 3 4 9 5 12 2 2 -3 -1 -11 -7 -17z m480 0 c-7 -7
-12 -8 -12 -2 0 6 3 14 7 17 3 4 9 5 12 2 2 -3 -1 -11 -7 -17z m720 0 c-7 -7
-12 -8 -12 -2 0 6 3 14 7 17 3 4 9 5 12 2 2 -3 -1 -11 -7 -17z m50 15 c-6 -3
-9 -10 -5 -16 4 -7 -1 -6 -10 2 -21 17 -21 17 6 18 12 0 16 -1 9 -4z m323 -3
c-3 -5 -1 -10 6 -10 7 0 10 -2 7 -5 -3 -3 -13 -2 -22 1 -14 5 -15 9 -4 15 17
11 20 11 13 -1z m200 -1 c3 -3 -6 -5 -19 -5 -14 1 -28 4 -31 7 -3 3 6 5 19 5
14 -1 28 -4 31 -7z m40 1 c-3 -5 -1 -10 6 -10 7 0 10 -2 7 -5 -3 -3 -13 -2
-22 1 -14 5 -15 9 -4 15 17 11 20 11 13 -1z m239 -28 c3 -5 -1 -9 -9 -9 -8 0
-15 4 -15 9 0 4 4 8 9 8 6 0 12 -4 15 -8z m-4018 -11 c-4 -5 0 -12 6 -15 7 -3
6 -4 -4 -3 -9 1 -23 -5 -30 -13 -7 -8 -12 -13 -11 -11 2 2 -2 10 -9 18 -9 11
-7 12 7 7 14 -6 16 -4 10 6 -5 8 -4 11 3 6 6 -3 13 -2 17 4 3 5 8 10 11 10 3
0 3 -4 0 -9z m-166 -86 c-7 -9 -15 -13 -17 -11 -6 6 20 36 26 30 2 -2 -2 -10
-9 -19z m-40 -30 c0 -2 -10 -9 -22 -15 -22 -11 -22 -10 -4 4 21 17 26 19 26
11z m-330 -315 c-8 -5 -19 -10 -25 -10 -5 0 -3 5 5 10 8 5 20 10 25 10 6 0 3
-5 -5 -10z m-51 -63 c0 -9 -2 -8 -6 1 -2 6 -10 9 -15 6 -7 -4 -8 -2 -4 5 9 13
26 5 25 -12z m-25 -48 c-3 -5 -10 -7 -15 -3 -5 3 -7 10 -3 15 3 5 10 7 15 3 5
-3 7 -10 3 -15z m-34 -59 c0 -5 -5 -10 -11 -10 -5 0 -7 5 -4 10 3 6 8 10 11
10 2 0 4 -4 4 -10z m-23 -65 c0 -8 -4 -12 -9 -9 -5 3 -6 10 -3 15 9 13 12 11
12 -6z m-12 -88 c-11 -9 -15 -19 -10 -28 6 -11 5 -12 -5 -2 -11 10 -11 15 0
28 7 8 17 15 23 15 6 0 3 -6 -8 -13z m-15 -73 c0 -8 -19 -13 -24 -6 -3 5 1 9
9 9 8 0 15 -2 15 -3z m-10 -44 c0 -5 -5 -10 -11 -10 -5 0 -7 5 -4 10 3 6 8 10
11 10 2 0 4 -4 4 -10z m17 -135 c0 -8 -4 -12 -9 -9 -5 3 -6 10 -3 15 9 13 12
11 12 -6z m-2 -465 c3 -5 1 -10 -4 -10 -6 0 -11 5 -11 10 0 6 2 10 4 10 3 0 8
-4 11 -10z m-20 -260 c3 -5 1 -10 -4 -10 -6 0 -11 5 -11 10 0 6 2 10 4 10 3 0
8 -4 11 -10z m20 -220 c3 -5 1 -10 -4 -10 -6 0 -11 5 -11 10 0 6 2 10 4 10 3
0 8 -4 11 -10z m0 -480 c3 -5 1 -10 -4 -10 -6 0 -11 5 -11 10 0 6 2 10 4 10 3
0 8 -4 11 -10z m-20 -260 c3 -5 1 -10 -4 -10 -6 0 -11 5 -11 10 0 6 2 10 4 10
3 0 8 -4 11 -10z m20 -220 c3 -5 1 -10 -4 -10 -6 0 -11 5 -11 10 0 6 2 10 4
10 3 0 8 -4 11 -10z m-5 -514 c0 -2 -8 -10 -17 -17 -16 -13 -17 -12 -4 4 13
16 21 21 21 13z m-15 -106 c3 -5 1 -10 -4 -10 -6 0 -11 5 -11 10 0 6 2 10 4
10 3 0 8 -4 11 -10z"/>
<path d="M2386 4968 c3 -5 10 -6 15 -3 13 9 11 12 -6 12 -8 0 -12 -4 -9 -9z"/>
<path d="M2626 4968 c3 -5 10 -6 15 -3 13 9 11 12 -6 12 -8 0 -12 -4 -9 -9z"/>
<path d="M991 4954 c0 -11 3 -14 6 -6 3 7 2 16 -1 19 -3 4 -6 -2 -5 -13z"/>
<path d="M1546 4958 c3 -5 10 -6 15 -3 13 9 11 12 -6 12 -8 0 -12 -4 -9 -9z"/>
<path d="M4140 4962 c0 -5 7 -9 15 -9 8 0 15 4 15 9 0 4 -7 8 -15 8 -8 0 -15
-4 -15 -8z"/>
<path d="M4186 4958 c3 -5 10 -6 15 -3 13 9 11 12 -6 12 -8 0 -12 -4 -9 -9z"/>
<path d="M4250 4959 c0 -15 29 -17 40 -3 10 12 8 14 -14 12 -14 -1 -26 -5 -26
-9z"/>
<path d="M4735 4951 c-3 -6 4 -9 15 -8 11 1 20 5 20 9 0 11 -28 10 -35 -1z"/>
<path d="M870 4934 c0 -8 5 -12 10 -9 6 3 10 10 10 16 0 5 -4 9 -10 9 -5 0
-10 -7 -10 -16z"/>
<path d="M845 4929 c-4 -6 -5 -12 -2 -15 2 -3 7 2 10 11 7 17 1 20 -8 4z"/>
<path d="M690 4881 c0 -7 -7 -11 -14 -8 -10 4 -13 1 -9 -9 5 -14 7 -14 21 0 9
9 13 19 9 22 -4 4 -7 2 -7 -5z"/>
<path d="M435 4720 c3 -5 8 -10 11 -10 2 0 4 5 4 10 0 6 -5 10 -11 10 -5 0 -7
-4 -4 -10z"/>
<path d="M1843 3923 c-7 -2 -13 -9 -13 -14 0 -6 5 -7 12 -3 6 4 8 3 4 -4 -6
-11 -37 -9 -56 3 -6 4 -16 3 -23 -3 -19 -14 -49 -23 -42 -12 3 6 1 10 -4 10
-6 0 -11 -10 -12 -22 0 -17 -2 -19 -7 -8 -10 22 -72 12 -72 -12 0 -7 5 -6 13
1 8 6 18 7 22 3 5 -4 5 -1 1 5 -5 9 -2 11 9 7 17 -7 15 -14 -7 -18 -7 -1 -19
-5 -25 -9 -7 -5 -13 -5 -13 -1 0 3 -8 0 -17 -7 -17 -13 -17 -13 -3 5 14 18 14
19 -8 7 -12 -7 -20 -16 -17 -21 3 -5 1 -11 -5 -15 -5 -3 -10 1 -10 9 0 9 -4
16 -9 16 -4 0 -8 -10 -7 -21 1 -16 -6 -23 -24 -25 -18 -3 -21 -2 -10 5 8 5 19
7 25 4 5 -3 5 0 -2 7 -9 10 -15 9 -32 -2 -12 -8 -18 -18 -14 -21 3 -4 0 -7 -8
-7 -9 0 -20 -10 -25 -22 -6 -13 -9 -17 -7 -10 4 19 -16 14 -42 -12 -13 -13
-27 -21 -31 -17 -4 3 -1 -5 6 -19 12 -23 12 -24 -3 -11 -15 12 -17 11 -17 -3
0 -11 -5 -14 -12 -10 -8 5 -9 2 -4 -11 6 -16 4 -16 -11 -4 -10 7 -15 9 -11 5
5 -5 -1 -15 -11 -23 -12 -8 -18 -21 -15 -35 2 -13 2 -17 -2 -10 -9 19 -24 14
-17 -5 3 -10 3 -15 -2 -11 -4 4 -14 3 -21 -3 -11 -9 -11 -16 -2 -33 10 -18 9
-19 -4 -8 -14 11 -17 8 -27 -18 -7 -20 -15 -29 -22 -24 -8 4 -9 3 -5 -5 4 -6
11 -9 15 -7 4 3 8 -1 8 -8 0 -8 -6 -12 -13 -9 -6 2 -15 0 -19 -6 -3 -6 -1 -11
5 -11 6 0 9 -4 5 -10 -3 -5 -13 -7 -23 -4 -15 5 -15 4 -2 -6 11 -9 12 -13 2
-17 -6 -2 -10 -9 -6 -14 3 -5 0 -9 -6 -9 -8 0 -8 -6 0 -20 8 -15 8 -20 -1 -18
-17 4 -29 -58 -15 -72 8 -8 6 -9 -6 -5 -14 6 -18 2 -18 -15 0 -11 4 -19 8 -16
5 3 9 -1 9 -9 0 -8 -5 -13 -10 -12 -7 1 -11 -72 -11 -205 -1 -134 2 -208 9
-208 7 0 7 -3 0 -8 -14 -10 -14 -105 -1 -114 7 -5 7 -8 1 -8 -14 0 -14 -390 0
-390 7 0 7 -3 0 -8 -14 -10 -14 -145 -1 -154 7 -5 7 -8 1 -8 -14 0 -14 -143
-1 -152 7 -5 7 -8 1 -8 -13 0 -9 -217 5 -252 1 -5 3 -16 5 -25 2 -25 17 -76
24 -88 3 -5 6 -12 7 -15 0 -3 7 -18 14 -35 7 -16 13 -33 12 -37 -1 -5 2 -8 7
-8 5 0 11 -8 15 -17 11 -36 50 -85 141 -180 39 -40 75 -73 82 -73 6 0 13 -3
15 -7 5 -13 61 -48 118 -74 58 -27 135 -51 210 -66 25 -5 695 -9 1510 -8 1625
1 1541 -2 1605 65 l30 31 0 200 0 201 -33 30 c-19 16 -40 27 -48 24 -8 -3 -12
-2 -9 4 7 12 -48 25 -105 25 -32 0 -44 -4 -42 -13 1 -8 -2 -11 -8 -7 -6 3 -8
10 -6 14 3 4 -37 7 -87 6 -71 0 -91 -3 -89 -13 1 -8 -2 -11 -8 -7 -6 3 -7 11
-4 17 5 7 1 9 -9 5 -10 -4 -17 -1 -18 6 0 7 -4 3 -9 -8 -5 -11 -9 -14 -9 -7
-1 7 -5 10 -11 7 -5 -3 -10 -1 -10 5 0 6 -5 8 -10 5 -6 -4 -7 -11 -4 -17 5 -7
2 -8 -6 -3 -7 4 -16 2 -20 -5 -5 -9 -9 -9 -14 -1 -4 6 -2 11 3 11 6 0 11 5 11
10 0 7 -7 7 -20 0 -11 -6 -17 -16 -14 -22 4 -7 3 -8 -5 -4 -6 4 -8 12 -5 18 4
6 -1 8 -15 3 -13 -4 -21 -2 -21 5 0 6 -5 8 -10 5 -8 -5 -7 -12 2 -23 10 -14
10 -15 -2 -4 -17 14 -34 16 -25 2 4 -6 -1 -7 -11 -3 -11 4 -13 8 -6 11 7 2 12
8 12 13 0 6 -8 5 -20 -1 -11 -6 -17 -16 -14 -22 4 -7 3 -8 -5 -4 -6 4 -8 12
-5 18 4 6 -1 8 -16 3 -13 -4 -20 -3 -17 2 3 5 -7 7 -23 5 -19 -3 -27 -9 -23
-16 3 -6 0 -6 -8 2 -17 16 -42 16 -33 0 6 -10 4 -10 -7 0 -17 16 -42 16 -33 0
6 -10 4 -10 -7 0 -17 16 -42 16 -33 0 4 -7 -1 -6 -12 3 -19 17 -49 15 -39 -2
4 -5 -1 -6 -9 -3 -9 3 -16 10 -16 16 0 5 -5 6 -10 3 -8 -5 -7 -12 2 -23 12
-15 11 -16 -5 -3 -15 12 -20 12 -27 2 -5 -9 -10 -10 -14 -2 -4 6 -2 11 3 11 6
0 11 5 11 10 0 7 -7 7 -20 0 -11 -6 -17 -16 -14 -22 4 -7 3 -8 -5 -4 -6 4 -8
12 -5 18 4 6 -1 8 -15 3 -13 -4 -21 -2 -21 5 0 6 -5 8 -10 5 -8 -5 -7 -12 2
-23 12 -15 11 -16 -5 -3 -15 12 -20 12 -27 2 -5 -9 -10 -10 -14 -2 -4 6 -2 11
3 11 6 0 11 5 11 10 0 7 -7 7 -20 0 -11 -6 -17 -16 -14 -22 4 -7 3 -8 -5 -4
-6 4 -8 12 -5 18 4 6 -1 8 -16 3 -13 -4 -20 -3 -17 2 3 5 -7 7 -23 5 -19 -3
-27 -9 -23 -16 3 -6 0 -6 -8 2 -17 16 -42 16 -33 0 6 -10 4 -10 -7 0 -17 16
-42 16 -33 0 6 -10 4 -10 -7 0 -17 16 -42 16 -33 0 4 -7 -1 -5 -12 4 -14 13
-23 14 -38 6 -14 -8 -21 -7 -27 3 -8 13 -13 5 -10 -14 1 -5 -3 -6 -9 -2 -6 4
-17 1 -25 -5 -9 -8 -15 -8 -15 -2 0 6 6 12 13 15 6 2 9 7 6 11 -3 3 -19 -4
-35 -16 -22 -17 -25 -18 -14 -4 14 18 13 18 -8 12 -14 -5 -22 -3 -22 4 0 6 -5
8 -10 5 -6 -4 -8 -11 -5 -16 3 -5 -1 -6 -9 -3 -10 4 -16 1 -16 -7 0 -8 -5 -6
-13 6 -10 13 -21 16 -40 11 -17 -4 -27 -2 -27 4 0 6 -5 8 -10 5 -8 -5 -7 -12
2 -23 11 -14 9 -14 -8 0 -24 21 -58 24 -49 6 4 -7 -1 -4 -11 7 -16 20 -16 20
-11 -5 5 -22 5 -23 -7 -8 -7 10 -16 15 -19 11 -4 -3 -7 -1 -7 6 0 7 -5 9 -10
6 -8 -5 -7 -12 2 -23 10 -14 10 -15 -2 -4 -17 14 -34 16 -25 2 3 -6 -1 -7 -10
-3 -13 4 -14 8 -4 14 8 4 11 11 7 14 -3 4 -15 -2 -26 -13 -19 -19 -21 -19 -27
-4 -6 15 -8 15 -22 -3 -14 -17 -15 -17 -9 -2 5 15 2 17 -14 12 -12 -4 -20 -2
-20 5 0 6 -5 8 -10 5 -6 -4 -7 -11 -4 -17 4 -7 2 -8 -5 -4 -6 4 -18 2 -26 -4
-11 -9 -15 -9 -15 -1 0 6 5 11 10 11 6 0 10 4 10 8 0 4 -16 6 -35 4 -22 -3
-33 -8 -29 -16 3 -6 -2 -2 -12 9 -16 20 -16 20 -11 -5 5 -22 5 -23 -7 -8 -7
10 -16 15 -19 11 -4 -3 -7 -1 -7 6 0 7 -5 9 -10 6 -8 -5 -7 -12 2 -23 10 -14
10 -15 -2 -4 -17 14 -34 16 -25 2 3 -6 -1 -7 -10 -3 -13 4 -14 8 -4 14 8 4 11
11 7 14 -3 4 -15 -2 -26 -13 -19 -19 -21 -19 -27 -4 -6 15 -8 15 -22 -3 -14
-17 -15 -17 -9 -2 5 15 2 17 -14 12 -12 -4 -20 -2 -20 5 0 6 -5 8 -10 5 -6 -4
-7 -11 -4 -17 4 -7 2 -8 -5 -4 -6 4 -18 2 -26 -4 -11 -9 -15 -9 -15 -1 0 6 5
11 10 11 6 0 10 4 10 8 0 4 -16 6 -35 4 -22 -3 -33 -8 -29 -16 3 -6 -2 -2 -12
9 -16 20 -16 20 -11 -5 5 -22 5 -23 -7 -8 -7 10 -16 15 -19 11 -4 -3 -7 -1 -7
6 0 7 -5 9 -10 6 -8 -5 -7 -12 2 -23 10 -14 10 -15 -2 -4 -17 14 -34 16 -25 2
3 -6 -1 -7 -10 -3 -13 4 -14 8 -4 14 8 4 11 11 7 14 -3 4 -15 -2 -26 -13 -19
-19 -21 -19 -27 -4 -6 15 -8 15 -22 -3 -14 -17 -15 -17 -9 -2 5 15 2 17 -14
12 -12 -4 -20 -2 -20 5 0 6 -5 8 -10 5 -6 -4 -7 -11 -4 -17 4 -7 2 -8 -5 -4
-6 4 -18 2 -26 -4 -11 -9 -15 -9 -15 -1 0 6 5 11 10 11 6 0 10 4 10 8 0 4 -16
6 -35 4 -22 -3 -33 -8 -29 -16 3 -6 -2 -2 -12 9 -16 20 -16 20 -11 -5 5 -22 5
-23 -7 -8 -7 10 -16 15 -19 11 -4 -3 -7 -1 -7 6 0 7 -5 9 -10 6 -8 -5 -7 -12
2 -23 10 -14 10 -15 -2 -4 -17 14 -34 16 -25 2 3 -6 -1 -7 -10 -3 -13 4 -14 8
-4 14 8 4 11 11 7 14 -3 4 -15 -2 -26 -13 -19 -19 -21 -19 -27 -4 -6 15 -8 15
-22 -3 -14 -17 -15 -17 -9 -2 5 15 2 17 -14 12 -12 -4 -20 -2 -20 5 0 6 -5 8
-10 5 -6 -4 -7 -11 -4 -17 5 -7 2 -8 -6 -3 -7 4 -16 2 -20 -5 -5 -9 -9 -9 -14
-1 -4 6 -2 11 3 11 6 0 11 4 11 9 0 9 -55 5 -72 -5 -7 -4 -8 -2 -4 4 5 8 -2
12 -18 12 -14 0 -26 5 -26 10 0 6 -7 10 -15 10 -8 0 -15 5 -15 11 0 5 -4 7
-10 4 -5 -3 -10 -3 -10 2 0 4 -13 23 -29 42 -17 19 -28 38 -25 42 2 4 0 10 -4
13 -5 3 -10 22 -11 43 -5 77 -6 1288 -1 1298 2 6 5 19 5 30 1 25 43 95 57 95
6 0 8 3 5 7 -4 3 17 18 46 32 l52 25 1447 2 c796 1 1455 5 1465 9 10 4 29 9
43 11 36 7 68 31 90 66 17 28 19 52 19 210 0 103 -4 180 -10 183 -5 4 -7 10
-4 15 7 12 -33 52 -44 45 -5 -2 -11 2 -15 10 -3 8 -12 12 -21 9 -8 -4 -15 -1
-15 6 0 9 -4 9 -17 -1 -9 -8 -14 -9 -10 -3 4 7 -2 14 -13 17 -11 3 -20 1 -20
-4 0 -5 5 -9 12 -9 6 0 8 -3 4 -7 -4 -5 -14 1 -22 11 -8 12 -14 15 -14 7 0
-11 -3 -11 -14 -2 -11 10 -17 8 -26 -6 -10 -16 -10 -15 -5 5 6 22 5 22 -14 10
-18 -10 -23 -11 -30 0 -6 9 -13 8 -30 -8 -21 -17 -26 -18 -44 -5 -12 8 -31 15
-42 14 -11 0 -14 -3 -7 -6 6 -2 12 -9 12 -14 0 -5 -9 -4 -19 3 -11 7 -17 16
-14 22 4 5 1 6 -8 0 -21 -13 -49 -15 -49 -3 0 5 -4 8 -10 4 -5 -3 -7 -13 -4
-23 3 -9 -2 -6 -10 8 -8 14 -15 20 -16 13 0 -9 -26 -11 -37 -3 -8 6 -50 3 -61
-4 -7 -4 -12 -2 -12 6 0 8 -3 9 -8 3 -9 -13 -32 -18 -32 -6 0 4 -11 6 -25 3
-14 -2 -25 -8 -25 -12 0 -5 8 -6 19 -3 10 3 21 1 24 -4 3 -5 -6 -8 -21 -7 -15
0 -28 8 -33 20 -6 18 -7 18 -14 2 -8 -21 -27 -25 -19 -5 3 8 -2 14 -10 14 -8
0 -12 -5 -9 -10 4 -6 0 -8 -9 -4 -9 3 -21 0 -27 -6 -9 -9 -10 -8 -5 7 7 19 6
19 -15 4 -25 -18 -55 -13 -44 6 3 6 1 6 -8 -1 -7 -7 -17 -13 -22 -13 -4 0 -5
6 -1 13 5 7 1 7 -10 -2 -15 -13 -19 -13 -27 0 -5 8 -9 9 -9 3 0 -6 -7 -11 -15
-11 -8 0 -15 3 -15 7 0 4 -11 5 -25 2 -14 -2 -25 -8 -25 -12 0 -5 8 -6 19 -3
10 3 21 1 24 -4 3 -5 -6 -8 -21 -7 -15 0 -28 8 -33 20 -6 18 -7 18 -14 2 -9
-23 -27 -24 -18 -2 5 14 3 15 -15 5 -11 -6 -23 -7 -26 -2 -5 7 -29 8 -61 1 -5
-1 -12 -1 -15 0 -19 7 -68 5 -63 -3 4 -6 0 -8 -9 -4 -9 3 -21 0 -27 -6 -9 -9
-10 -8 -5 7 7 19 6 19 -15 4 -25 -18 -55 -13 -44 6 3 6 1 6 -8 -1 -7 -7 -17
-13 -22 -13 -4 0 -5 6 -1 13 5 7 1 7 -10 -2 -15 -13 -19 -13 -27 0 -5 8 -9 9
-9 3 0 -6 -7 -11 -15 -11 -8 0 -15 3 -15 7 0 4 -11 5 -25 2 -14 -2 -25 -8 -25
-12 0 -5 8 -6 19 -3 10 3 21 1 24 -4 3 -5 -6 -8 -21 -7 -15 0 -28 8 -33 20 -6
18 -7 18 -14 2 -4 -10 -11 -18 -16 -18 -4 0 -6 8 -3 18 4 13 1 11 -14 -6 -12
-12 -23 -18 -26 -13 -4 5 0 11 6 14 7 2 10 7 7 11 -4 4 -13 0 -22 -8 -11 -12
-16 -12 -20 -3 -6 16 -91 15 -111 -3 -14 -11 -16 -10 -10 6 6 15 4 17 -6 7 -9
-8 -21 -9 -39 -2 l-26 9 25 -21 25 -20 -25 12 c-14 7 -28 17 -32 23 -6 8 -8 8
-8 0 0 -6 -7 -11 -15 -11 -8 0 -15 4 -15 8 0 5 -7 6 -15 3 -14 -6 -14 -8 0
-18 15 -10 14 -12 -4 -12 -11 0 -19 3 -19 6 0 3 0 12 -1 20 -1 12 -4 12 -12
-2 -5 -10 -15 -18 -22 -18 -8 0 -8 3 1 9 10 6 9 10 -7 14 -12 3 -24 0 -28 -5
-4 -7 -1 -8 8 -3 11 7 12 6 2 -7 -7 -8 -11 -18 -8 -21 3 -4 2 -4 -3 -1 -7 5
-8 9 -11 37 -1 7 -4 8 -9 2 -10 -14 -32 -17 -32 -5 0 6 -9 6 -25 0 -13 -5 -27
-6 -29 -1 -5 7 -30 8 -61 1 -5 -1 -12 -1 -15 0 -19 7 -68 5 -63 -3 4 -6 0 -8
-9 -4 -9 3 -21 0 -27 -6 -9 -9 -10 -8 -5 7 7 19 6 19 -15 4 -25 -18 -55 -13
-44 6 3 6 1 6 -8 -1 -7 -7 -17 -13 -22 -13 -4 0 -5 6 -1 13 5 7 1 7 -10 -2
-15 -13 -19 -13 -27 0 -5 8 -9 9 -9 3 0 -6 -7 -11 -15 -11 -8 0 -15 3 -15 7 0
4 -11 5 -25 2 -14 -2 -25 -8 -25 -12 0 -5 8 -6 19 -3 10 3 21 1 24 -4 3 -5 -6
-8 -21 -7 -15 0 -28 8 -33 20 -6 18 -7 18 -14 2 -9 -23 -27 -24 -18 -2 5 14 3
15 -15 5 -11 -6 -23 -7 -26 -2 -6 9 -48 7 -65 -3 -5 -4 -12 -2 -15 2 -7 12
-42 8 -60 -7 -14 -12 -16 -11 -10 5 6 15 4 17 -6 7 -9 -8 -21 -9 -39 -2 l-26
9 25 -21 25 -20 -25 12 c-14 7 -28 17 -32 23 -6 8 -8 8 -8 0 0 -6 -7 -11 -15
-11 -8 0 -15 4 -15 8 0 5 -7 6 -15 3 -14 -6 -14 -8 0 -18 15 -10 14 -12 -4
-12 -11 0 -19 3 -19 6 0 3 0 12 -1 20 -1 12 -4 12 -12 -2 -5 -10 -15 -18 -22
-18 -8 0 -8 3 1 9 10 6 9 10 -7 14 -12 3 -24 0 -28 -5 -4 -7 -1 -8 8 -3 11 7
12 6 2 -7 -7 -8 -11 -18 -8 -21 3 -4 2 -4 -2 -1 -8 5 -9 9 -12 37 -1 7 -4 8
-9 2 -10 -14 -32 -17 -32 -4 0 5 -5 7 -10 4 -8 -5 -7 -12 2 -23 11 -14 9 -14
-8 1 -11 9 -24 17 -29 17 -4 0 -1 -8 6 -17 11 -15 11 -16 -1 -6 -9 9 -19 9
-33 2 -14 -8 -18 -8 -13 0 4 6 2 11 -4 11 -6 0 -8 5 -5 10 7 11 6 11 -12 3z
m1422 -21 c-3 -3 -11 0 -18 7 -9 10 -8 11 6 5 10 -3 15 -9 12 -12z m1094 5
c10 3 21 1 24 -4 3 -5 -6 -8 -21 -7 -14 0 -27 6 -28 13 -1 6 0 7 2 2 3 -5 13
-7 23 -4z m-2089 -7 c0 -5 -2 -10 -4 -10 -3 0 -8 5 -11 10 -3 6 -1 10 4 10 6
0 11 -4 11 -10z m80 0 c0 -5 -2 -10 -4 -10 -3 0 -8 5 -11 10 -3 6 -1 10 4 10
6 0 11 -4 11 -10z m400 0 c0 -5 -2 -10 -4 -10 -3 0 -8 5 -11 10 -3 6 -1 10 4
10 6 0 11 -4 11 -10z m80 0 c0 -5 -2 -10 -4 -10 -3 0 -8 5 -11 10 -3 6 -1 10
4 10 6 0 11 -4 11 -10z m74 2 c2 -4 -4 -8 -14 -8 -10 0 -16 4 -14 8 3 4 9 8
14 8 5 0 11 -4 14 -8z m326 -2 c0 -5 -2 -10 -4 -10 -3 0 -8 5 -11 10 -3 6 -1
10 4 10 6 0 11 -4 11 -10z m480 0 c0 -5 -2 -10 -4 -10 -3 0 -8 5 -11 10 -3 6
-1 10 4 10 6 0 11 -4 11 -10z m80 0 c0 -5 -2 -10 -4 -10 -3 0 -8 5 -11 10 -3
6 -1 10 4 10 6 0 11 -4 11 -10z m-2360 -180 c-12 -22 -21 -26 -17 -7 2 10 17
26 25 27 1 0 -2 -9 -8 -20z m-95 -90 c-3 -5 -12 -10 -18 -10 -7 0 -6 4 3 10
19 12 23 12 15 0z m-58 -65 c0 -8 -4 -12 -9 -9 -5 3 -6 10 -3 15 9 13 12 11
12 -6z m2003 -1919 c0 -3 -4 -8 -10 -11 -5 -3 -10 -1 -10 4 0 6 5 11 10 11 6
0 10 -2 10 -4z m1265 -6 c3 -6 -1 -7 -9 -4 -18 7 -21 14 -7 14 6 0 13 -4 16
-10z m59 1 c3 -4 -4 -7 -14 -6 -27 2 -33 10 -10 12 11 1 22 -2 24 -6z m126 -1
c0 -5 -2 -10 -4 -10 -3 0 -8 5 -11 10 -3 6 -1 10 4 10 6 0 11 -4 11 -10z m69
1 c10 -7 7 -9 -12 -8 -14 1 -23 5 -20 10 6 9 15 9 32 -2z"/>
<path d="M1875 3920 c-3 -5 -1 -10 4 -10 6 0 11 5 11 10 0 6 -2 10 -4 10 -3 0
-8 -4 -11 -10z"/>
<path d="M4592 3913 c6 -7 14 -10 19 -7 15 9 10 20 -10 20 -15 0 -17 -3 -9
-13z"/>
<path d="M225 780 c3 -5 -5 -8 -17 -8 -36 3 -80 -22 -67 -38 8 -9 5 -11 -10
-7 -41 11 -48 -32 -49 -292 -1 -132 3 -253 8 -270 6 -17 26 -40 46 -53 34 -22
42 -23 287 -24 202 0 259 2 287 14 34 15 71 56 77 88 2 8 4 121 4 250 1 254
-6 294 -53 318 -35 17 -76 22 -82 9 -2 -7 -5 -4 -5 6 -1 18 -16 23 -26 7 -3
-5 -12 -7 -20 -3 -10 3 -14 0 -12 -8 2 -8 2 -11 0 -6 -3 4 -9 5 -14 2 -5 -4
-6 2 -2 12 6 16 5 16 -10 4 -13 -10 -20 -11 -30 -2 -8 6 -16 8 -19 5 -11 -10
-68 -13 -68 -4 0 6 -5 10 -11 10 -6 0 -8 -9 -4 -22 5 -20 4 -20 -5 -6 -6 10
-17 15 -27 11 -12 -5 -14 -3 -8 8 5 8 -2 5 -15 -6 -13 -11 -20 -14 -16 -7 11
19 -12 14 -24 -5 -10 -16 -10 -16 -5 3 4 14 1 21 -10 21 -10 0 -14 -6 -10 -16
5 -12 3 -13 -6 -4 -6 6 -18 9 -27 6 -11 -5 -13 -3 -7 8 5 8 -2 5 -15 -6 -13
-11 -20 -15 -17 -9 4 7 0 15 -9 18 -8 3 -12 2 -9 -4z m-8 -25 c4 -4 3 -5 -4
-2 -6 4 -13 2 -15 -5 -3 -8 -6 -6 -10 4 -7 17 15 19 29 3z m313 5 c0 -5 -2
-10 -4 -10 -3 0 -8 5 -11 10 -3 6 -1 10 4 10 6 0 11 -4 11 -10z m-410 -74 c0
-3 -4 -8 -10 -11 -5 -3 -10 -1 -10 4 0 6 5 11 10 11 6 0 10 -2 10 -4z"/>
<path d="M1166 712 c-13 -16 -14 -19 -1 -19 8 0 12 3 10 7 -2 3 7 6 20 6 22 0
25 -9 4 -12 -5 -1 -11 -3 -14 -4 -13 -6 -31 -5 -41 2 -7 5 -14 2 -18 -7 -4
-11 -2 -14 7 -9 6 4 9 4 5 -1 -4 -4 -3 -16 2 -26 7 -12 7 -20 0 -24 -6 -4 -10
-3 -9 2 3 17 -1 33 -9 33 -10 0 -9 -132 2 -149 6 -9 5 -12 -1 -8 -11 7 -11
-42 0 -60 4 -6 1 -14 -5 -16 -10 -4 -10 -6 0 -6 8 -1 10 -6 5 -13 -11 -18 -10
-32 2 -40 7 -5 7 -11 0 -15 -5 -5 -10 -25 -11 -45 0 -30 3 -35 13 -26 11 8 12
7 7 -7 -6 -14 -4 -16 6 -10 8 5 11 4 6 -3 -4 -6 -14 -8 -24 -5 -15 6 -15 5 -3
-10 7 -9 10 -17 5 -17 -5 0 -9 -15 -9 -34 0 -19 3 -32 7 -30 4 3 8 0 8 -5 0
-6 -4 -11 -8 -11 -8 0 -9 -44 -2 -60 1 -3 2 -8 1 -12 0 -4 12 -16 28 -28 l30
-20 1798 2 1798 3 47 22 c54 25 95 64 106 102 4 14 7 119 7 232 l0 206 -28 36
c-15 20 -35 37 -43 37 -7 0 -14 5 -14 10 0 6 -9 10 -20 10 -11 0 -20 4 -20 8
0 5 -16 9 -35 11 -71 3 -85 5 -85 11 0 3 -11 6 -25 6 -43 0 -13 -14 42 -19 12
-2 25 -5 28 -9 6 -6 -34 -3 -70 6 -11 2 -26 5 -33 5 -7 1 -11 4 -8 9 2 4 -13
7 -35 7 -21 0 -39 -4 -39 -8 0 -5 6 -7 13 -4 8 3 14 -1 14 -8 0 -11 -5 -11
-20 -3 -17 9 -19 8 -14 -6 4 -11 3 -15 -4 -11 -5 4 -7 16 -4 28 2 12 2 16 -1
10 -3 -7 -10 -13 -15 -13 -6 0 -8 4 -5 8 6 11 -34 9 -52 -1 -7 -5 -10 -12 -8
-16 3 -3 -4 -7 -14 -7 -10 0 -16 4 -14 8 3 4 -9 5 -26 3 -16 -2 -36 2 -43 9
-14 14 -49 18 -41 4 3 -5 10 -5 16 -2 6 4 8 2 4 -4 -3 -5 0 -12 6 -15 7 -3 3
-4 -9 -4 -12 1 -20 4 -18 7 1 3 -4 12 -13 19 -14 13 -15 13 -10 -6 5 -19 3
-20 -18 -11 -13 6 -22 14 -19 17 2 4 -7 7 -21 7 -13 0 -24 -4 -24 -9 0 -5 7
-6 16 -3 9 3 12 2 9 -5 -4 -6 -13 -8 -20 -5 -7 2 -18 -1 -25 -7 -9 -8 -11 -8
-7 -1 8 13 -50 13 -72 0 -8 -5 -19 -2 -29 9 -10 10 -11 15 -4 11 6 -4 12 -2
12 3 0 15 -15 14 -29 -3 -9 -11 -9 -15 1 -19 7 -2 1 -4 -14 -3 -14 0 -24 5
-21 10 3 5 0 6 -8 4 -8 -3 -13 -12 -11 -19 2 -8 0 -10 -5 -6 -4 5 -9 13 -9 18
-1 5 -2 13 -3 17 -1 11 -72 9 -90 -2 -10 -7 -11 -10 -1 -16 8 -5 3 -7 -13 -7
-14 1 -23 5 -20 10 6 10 -5 9 -29 -4 -16 -8 -19 -8 -13 1 5 9 2 10 -13 6 -11
-4 -23 -3 -26 2 -3 5 20 8 50 7 29 -1 54 1 54 4 0 10 -133 7 -149 -3 -10 -7
-11 -10 -1 -16 8 -5 3 -7 -13 -7 -14 1 -23 6 -20 11 3 5 0 6 -8 4 -8 -3 -12
-14 -11 -24 2 -10 1 -16 -3 -12 -5 5 -11 24 -14 49 -1 9 -74 5 -90 -5 -10 -7
-11 -10 -1 -16 8 -5 3 -7 -13 -7 -14 1 -23 6 -20 11 3 5 0 6 -8 4 -8 -3 -13
-11 -11 -17 1 -7 -2 -10 -8 -6 -6 3 -8 9 -6 13 2 4 -3 14 -12 21 -14 13 -15
13 -10 -6 5 -19 3 -20 -18 -11 -13 6 -22 14 -19 17 2 4 -7 7 -21 7 -13 0 -24
-4 -24 -9 0 -5 7 -6 16 -3 9 3 12 2 9 -5 -4 -6 -13 -8 -20 -5 -7 2 -18 -1 -25
-7 -10 -9 -11 -9 -6 1 9 15 1 15 -26 1 -18 -10 -24 -8 -37 8 -12 14 -28 19
-56 19 -45 -1 -59 -13 -42 -36 6 -8 2 -6 -11 4 -23 20 -30 32 -12 21 6 -3 10
-1 10 4 0 15 -15 14 -29 -3 -9 -11 -9 -15 1 -19 7 -2 1 -4 -14 -3 -14 0 -24 5
-21 10 3 4 -5 5 -18 1 -18 -5 -21 -4 -9 4 8 6 23 8 33 5 9 -3 17 -2 17 3 0 5
-18 9 -40 9 -21 0 -37 -3 -34 -8 3 -4 -2 -8 -10 -8 -9 0 -16 4 -16 9 0 6 -9 9
-19 8 -11 0 -17 -5 -15 -9 3 -5 10 -5 16 -2 6 4 8 2 4 -4 -3 -5 0 -12 6 -15 7
-3 3 -4 -9 -4 -12 1 -20 4 -18 7 1 3 -4 12 -13 19 -14 13 -15 13 -10 -6 5 -19
3 -20 -18 -11 -13 6 -22 14 -19 17 2 4 -7 7 -21 7 -13 0 -24 -4 -24 -9 0 -5 7
-6 16 -3 9 3 12 2 9 -5 -4 -6 -13 -8 -20 -5 -7 2 -18 -1 -25 -7 -9 -8 -11 -8
-7 -1 8 13 -50 13 -72 0 -8 -5 -19 -2 -29 9 -10 10 -11 15 -4 11 6 -4 12 -2
12 3 0 15 -15 14 -29 -3 -9 -11 -9 -15 1 -19 7 -2 1 -4 -14 -3 -14 0 -24 5
-21 10 3 5 0 6 -8 4 -8 -3 -13 -12 -11 -19 2 -8 0 -10 -5 -6 -4 5 -9 13 -9 18
-1 5 -2 13 -3 17 -1 11 -72 9 -90 -2 -10 -7 -11 -10 -1 -16 8 -5 3 -7 -13 -7
-14 1 -23 5 -20 10 6 10 -5 9 -29 -4 -16 -8 -19 -8 -13 1 5 9 2 10 -13 6 -11
-4 -23 -3 -26 2 -3 5 20 8 50 7 29 -1 54 1 54 4 0 10 -133 7 -149 -3 -10 -7
-11 -10 -1 -16 8 -5 3 -7 -13 -7 -14 1 -23 6 -20 11 3 5 0 6 -8 4 -8 -3 -12
-14 -11 -24 2 -10 1 -16 -3 -12 -5 5 -11 24 -14 49 -1 9 -74 5 -90 -5 -10 -7
-11 -10 -1 -16 8 -5 3 -7 -13 -7 -14 1 -23 6 -20 11 3 4 -4 5 -15 2 -11 -4
-26 -1 -34 7 -14 14 -88 19 -88 6 0 -4 16 -6 35 -5 19 2 32 0 30 -5 -3 -4 1
-9 7 -12 7 -3 3 -4 -9 -4 -13 1 -23 5 -23 9 0 4 -5 8 -11 8 -5 0 -7 -5 -4 -10
12 -20 -20 -5 -33 15 -10 15 -12 16 -8 3 3 -10 0 -20 -6 -24 -7 -5 -8 -2 -3 6
5 9 1 11 -16 6 -13 -3 -18 -3 -11 0 6 3 12 9 12 13 0 11 -39 11 -46 -1 -5 -7
-2 -8 7 -3 8 5 11 4 6 0 -4 -5 -1 -16 5 -25 7 -9 1 -4 -13 10 -40 42 -139 33
-106 -10 6 -8 2 -6 -11 4 -23 20 -30 32 -12 21 6 -3 10 -1 10 4 0 15 -15 14
-29 -3 -9 -11 -9 -15 1 -19 7 -2 1 -4 -14 -3 -14 0 -24 5 -21 10 3 4 -5 5 -18
1 -18 -5 -21 -4 -9 4 8 6 23 8 33 5 9 -3 17 -2 17 3 0 5 -18 9 -40 9 -21 0
-37 -3 -34 -8 3 -4 -2 -8 -10 -8 -9 0 -16 4 -16 9 0 6 -9 9 -19 8 -11 0 -17
-5 -15 -9 3 -5 10 -5 16 -2 6 4 8 2 4 -4 -3 -5 0 -12 6 -15 7 -3 3 -4 -9 -4
-12 1 -20 4 -18 7 1 3 -4 12 -13 19 -14 13 -15 13 -10 -6 5 -19 3 -20 -18 -11
-13 6 -22 14 -19 17 2 4 -7 7 -21 7 -13 0 -24 -4 -24 -9 0 -5 7 -6 16 -3 9 3
12 2 9 -5 -4 -6 -13 -8 -20 -5 -7 2 -18 -1 -25 -7 -10 -9 -11 -9 -6 0 5 9 -2
11 -24 8 -16 -2 -32 0 -35 5 -3 5 6 7 20 4 14 -2 25 0 25 5 0 6 -16 9 -35 8
-28 -2 -34 -5 -29 -19 3 -12 0 -16 -15 -15 -11 0 -17 5 -15 9 3 5 11 5 17 1 7
-4 6 1 -2 10 -10 13 -17 15 -27 6 -8 -6 -12 -14 -10 -18 3 -4 -4 -7 -14 -7
-10 0 -17 3 -14 7 2 4 -2 10 -8 13 -7 3 -3 3 10 0 12 -3 22 -1 22 4 0 5 -10 9
-22 8 -18 -1 -23 -7 -22 -26 l2 -24 -22 24 c-21 25 -53 33 -49 13 1 -6 -5 -10
-15 -8 -9 1 -21 0 -27 -4 -18 -10 -35 -10 -29 1 4 6 -2 8 -17 3 -23 -7 -23 -6
-5 7 15 12 16 15 3 15 -18 0 -30 -24 -20 -39 3 -7 1 -8 -6 -4 -6 4 -10 15 -9
23 3 17 -28 27 -38 12 -4 -6 -10 -6 -18 0 -9 8 -18 6 -30 -7z m77 -9 c-3 -7
-6 -13 -8 -13 -2 0 -5 6 -8 13 -3 8 1 14 8 14 7 0 11 -6 8 -14z m157 2 c7 -9
8 -15 2 -15 -5 0 -12 7 -16 15 -3 8 -4 15 -2 15 2 0 9 -7 16 -15z m614 3 c-2
-3 -1 -8 3 -11 5 -2 1 -1 -7 1 -8 3 -26 5 -39 5 -16 -1 -20 2 -11 7 15 9 60 8
54 -2z m362 -6 c1 -7 0 -8 -3 -2 -2 5 -9 10 -14 10 -6 0 -8 -4 -5 -8 2 -4 -4
-8 -14 -8 -10 0 -16 5 -13 12 6 15 46 12 49 -4z m320 0 c1 -7 0 -8 -3 -2 -2 5
-9 10 -14 10 -6 0 -8 -4 -5 -8 2 -4 -4 -8 -14 -8 -10 0 -16 5 -13 12 6 15 46
12 49 -4z m598 6 c-2 -3 -1 -8 3 -11 5 -2 1 -1 -7 1 -8 3 -26 5 -39 5 -16 -1
-20 2 -11 7 15 9 60 8 54 -2z m362 -6 c1 -7 0 -8 -3 -2 -2 5 -9 10 -14 10 -6
0 -8 -4 -5 -8 2 -4 -4 -8 -14 -8 -10 0 -16 5 -13 12 6 15 46 12 49 -4z m320 0
c1 -7 0 -8 -3 -2 -2 5 -9 10 -14 10 -6 0 -8 -4 -5 -8 2 -4 -4 -8 -14 -8 -10 0
-16 5 -13 12 6 15 46 12 49 -4z m532 6 c8 -10 4 -13 -13 -14 -19 -2 -21 1 -12
12 15 16 13 16 25 2z m103 -11 c-13 -13 -26 -3 -16 12 3 6 11 8 17 5 6 -4 6
-10 -1 -17z m-2766 -9 c5 4 5 1 1 -6 -6 -10 -11 -10 -22 -1 -8 6 -14 14 -14
16 0 3 6 0 13 -6 8 -6 18 -7 22 -3z m646 -11 c-10 -9 -11 -8 -5 6 3 10 9 15
12 12 3 -3 0 -11 -7 -18z m634 11 c5 4 5 1 1 -6 -6 -10 -11 -10 -22 -1 -8 6
-14 14 -14 16 0 3 6 0 13 -6 8 -6 18 -7 22 -3z m646 -11 c-10 -9 -11 -8 -5 6
3 10 9 15 12 12 3 -3 0 -11 -7 -18z m1025 1 c19 -23 19 -23 -2 -5 -22 18 -39
23 -29 8 3 -5 1 -12 -4 -15 -7 -5 -8 11 -2 32 3 8 21 -1 37 -20z m-3416 2 c8
-5 11 -10 5 -10 -5 0 -17 5 -25 10 -8 5 -10 10 -5 10 6 0 17 -5 25 -10z m310
6 c0 -3 -4 -8 -10 -11 -5 -3 -10 -1 -10 4 0 6 5 11 10 11 6 0 10 -2 10 -4z
m1280 0 c0 -3 -4 -8 -10 -11 -5 -3 -10 -1 -10 4 0 6 5 11 10 11 6 0 10 -2 10
-4z m1180 0 c0 -2 -7 -7 -16 -10 -8 -3 -12 -2 -9 4 6 10 25 14 25 6z m100 0
c0 -3 -4 -8 -10 -11 -5 -3 -10 -1 -10 4 0 6 5 11 10 11 6 0 10 -2 10 -4z
m-3067 -161 c-3 -9 -8 -14 -10 -11 -3 3 -2 9 2 15 9 16 15 13 8 -4z m-16 -60
c0 -8 -4 -12 -9 -9 -5 3 -6 10 -3 15 9 13 12 11 12 -6z"/>
<path d="M1310 719 c0 -13 18 -20 25 -9 4 6 12 7 18 4 7 -4 9 -3 4 1 -10 11
-47 14 -47 4z"/>
<path d="M1420 721 c0 -6 4 -13 10 -16 6 -3 7 1 4 9 -7 18 -14 21 -14 7z"/>
<path d="M2226 720 c8 -8 64 -8 64 -1 0 4 -15 7 -34 7 -19 0 -32 -3 -30 -6z"/>
<path d="M2406 722 c-2 -4 7 -8 20 -8 13 -1 24 1 24 5 0 9 -38 12 -44 3z"/>
<path d="M2726 722 c-2 -4 7 -8 20 -8 13 -1 24 1 24 5 0 9 -38 12 -44 3z"/>
<path d="M2816 715 c-3 -8 -1 -15 4 -15 13 0 22 18 11 24 -5 3 -11 -1 -15 -9z"/>
<path d="M2850 722 c0 -4 9 -8 20 -9 11 -1 20 2 20 5 0 4 -9 8 -20 9 -11 1
-20 -2 -20 -5z"/>
<path d="M3325 720 c-3 -5 -1 -11 4 -14 11 -7 41 3 41 13 0 10 -39 11 -45 1z"/>
<path d="M3515 722 c8 -9 55 -11 55 -3 0 4 -13 7 -30 7 -16 0 -28 -2 -25 -4z"/>
<path d="M3686 722 c-2 -4 7 -8 20 -8 13 -1 24 1 24 5 0 9 -38 12 -44 3z"/>
<path d="M4006 722 c-2 -4 7 -8 20 -8 13 -1 24 1 24 5 0 9 -38 12 -44 3z"/>
<path d="M4096 715 c-3 -8 -1 -15 4 -15 13 0 22 18 11 24 -5 3 -11 -1 -15 -9z"/>
<path d="M4130 722 c0 -4 9 -8 20 -9 11 -1 20 2 20 5 0 4 -9 8 -20 9 -11 1
-20 -2 -20 -5z"/>
<path d="M4370 720 c0 -3 18 -6 40 -6 22 0 40 2 40 6 0 3 -18 6 -40 6 -22 0
-40 -2 -40 -6z"/>
</g>
</svg>
